<svg xmlns="http://www.w3.org/2000/svg" width="89" height="69" viewBox="0 0 89 69" fill="none"><circle cx="18" cy="18" r="15" stroke="#29D884" stroke-width="2"></circle><path d="M19.5 12.5C19.5 11.6716 18.8284 11 18 11C17.1716 11 16.5 11.6716 16.5 12.5V16.5H12.5C11.6716 16.5 11 17.1716 11 18C11 18.8284 11.6716 19.5 12.5 19.5H16.5V23.5C16.5 24.3284 17.1716 25 18 25C18.8284 25 19.5 24.3284 19.5 23.5V19.5H23.5C24.3284 19.5 25 18.8284 25 18C25 17.1716 24.3284 16.5 23.5 16.5H19.5V12.5Z" fill="#29D884"></path><path d="M2 49L2 29" stroke="white" stroke-width="0.5" stroke-linecap="round" stroke-linejoin="round" stroke-dasharray="2 2"></path><path d="M34 49L34 29" stroke="white" stroke-width="0.5" stroke-linecap="round" stroke-linejoin="round" stroke-dasharray="2 2"></path><path d="M2 52L34 52" stroke="white" stroke-width="0.5" stroke-linecap="round" stroke-linejoin="round"></path><path d="M34 50L34 54" stroke="white" stroke-width="0.5" stroke-linecap="round" stroke-linejoin="round"></path><path d="M2 50L2 54" stroke="white" stroke-width="0.5" stroke-linecap="round" stroke-linejoin="round"></path><path d="M49 34L29 34" stroke="white" stroke-width="0.5" stroke-linecap="round" stroke-linejoin="round" stroke-dasharray="2 2"></path><path d="M49 2L29 2" stroke="white" stroke-width="0.5" stroke-linecap="round" stroke-linejoin="round" stroke-dasharray="2 2"></path><path d="M52 34L52 2" stroke="white" stroke-width="0.5" stroke-linecap="round" stroke-linejoin="round"></path><path d="M50 2L54 2" stroke="white" stroke-width="0.5" stroke-linecap="round" stroke-linejoin="round"></path><path d="M50 34L54 34" stroke="white" stroke-width="0.5" stroke-linecap="round" stroke-linejoin="round"></path><path d="M6.67588 66.108C6.20388 66.108 5.73588 66.04 5.27188 65.904C4.80788 65.768 4.40388 65.568 4.05988 65.304C3.93188 65.208 3.85588 65.104 3.83188 64.992C3.81588 64.872 3.83188 64.764 3.87988 64.668C3.93588 64.572 4.01988 64.512 4.13188 64.488C4.24388 64.456 4.36788 64.484 4.50388 64.572C4.85588 64.804 5.20788 64.972 5.55988 65.076C5.91188 65.18 6.27588 65.232 6.65188 65.232C7.25988 65.232 7.72388 65.1 8.04388 64.836C8.37188 64.564 8.53588 64.168 8.53588 63.648C8.53588 63.152 8.37188 62.776 8.04388 62.52C7.71588 62.264 7.23988 62.136 6.61588 62.136H5.76388C5.45188 62.136 5.29588 61.992 5.29588 61.704C5.29588 61.424 5.45188 61.284 5.76388 61.284H6.53188C7.07588 61.284 7.50388 61.144 7.81588 60.864C8.13588 60.576 8.29588 60.184 8.29588 59.688C8.29588 59.248 8.14788 58.908 7.85188 58.668C7.56388 58.428 7.15188 58.308 6.61588 58.308C6.24788 58.308 5.90388 58.36 5.58388 58.464C5.27188 58.568 4.95988 58.744 4.64788 58.992C4.52788 59.08 4.41188 59.112 4.29988 59.088C4.19588 59.064 4.11188 59.008 4.04788 58.92C3.99188 58.824 3.97188 58.716 3.98788 58.596C4.01188 58.476 4.08788 58.368 4.21588 58.272C4.52788 58.008 4.89988 57.804 5.33188 57.66C5.76388 57.508 6.21188 57.432 6.67588 57.432C7.49188 57.432 8.12788 57.624 8.58388 58.008C9.04788 58.392 9.27988 58.924 9.27988 59.604C9.27988 60.076 9.15988 60.492 8.91988 60.852C8.67988 61.204 8.34788 61.46 7.92388 61.62C8.42788 61.756 8.81988 62.008 9.09988 62.376C9.37988 62.736 9.51988 63.184 9.51988 63.72C9.51988 64.448 9.26388 65.028 8.75188 65.46C8.24788 65.892 7.55588 66.108 6.67588 66.108ZM11.9152 66C11.7312 66 11.5992 65.96 11.5192 65.88C11.4392 65.792 11.3992 65.676 11.3992 65.532C11.3992 65.364 11.4832 65.192 11.6512 65.016L14.3392 62.136C14.7472 61.696 15.0392 61.292 15.2152 60.924C15.3992 60.548 15.4912 60.168 15.4912 59.784C15.4912 58.8 14.9192 58.308 13.7752 58.308C13.0632 58.308 12.4152 58.536 11.8312 58.992C11.7032 59.088 11.5872 59.124 11.4832 59.1C11.3792 59.068 11.2992 59.004 11.2432 58.908C11.1952 58.812 11.1752 58.708 11.1832 58.596C11.1992 58.476 11.2672 58.372 11.3872 58.284C11.6992 58.028 12.0752 57.824 12.5152 57.672C12.9552 57.512 13.4032 57.432 13.8592 57.432C14.7072 57.432 15.3552 57.632 15.8032 58.032C16.2592 58.424 16.4872 58.984 16.4872 59.712C16.4872 60.216 16.3632 60.712 16.1152 61.2C15.8752 61.68 15.4952 62.192 14.9752 62.736L12.6952 65.16H16.4632C16.7672 65.16 16.9192 65.296 16.9192 65.568C16.9192 65.856 16.7672 66 16.4632 66H11.9152ZM22.0483 68.244C21.7283 68.244 21.5683 68.08 21.5683 67.752V60.576C21.5683 60.248 21.7243 60.084 22.0363 60.084C22.3643 60.084 22.5283 60.248 22.5283 60.576V61.2C22.6963 60.848 22.9563 60.572 23.3083 60.372C23.6603 60.164 24.0643 60.06 24.5203 60.06C25.0403 60.06 25.4923 60.184 25.8763 60.432C26.2683 60.672 26.5683 61.02 26.7763 61.476C26.9923 61.924 27.1003 62.46 27.1003 63.084C27.1003 63.7 26.9923 64.236 26.7763 64.692C26.5683 65.14 26.2683 65.488 25.8763 65.736C25.4923 65.984 25.0403 66.108 24.5203 66.108C24.0723 66.108 23.6723 66.008 23.3203 65.808C22.9683 65.608 22.7083 65.332 22.5403 64.98V67.752C22.5403 68.08 22.3763 68.244 22.0483 68.244ZM24.3163 65.328C24.8603 65.328 25.2963 65.136 25.6243 64.752C25.9523 64.36 26.1163 63.804 26.1163 63.084C26.1163 62.356 25.9523 61.8 25.6243 61.416C25.2963 61.032 24.8603 60.84 24.3163 60.84C23.7723 60.84 23.3363 61.032 23.0083 61.416C22.6803 61.8 22.5163 62.356 22.5163 63.084C22.5163 63.804 22.6803 64.36 23.0083 64.752C23.3363 65.136 23.7723 65.328 24.3163 65.328ZM28.4594 66.072C28.2994 66.072 28.1794 66.004 28.0994 65.868C28.0194 65.724 28.0554 65.56 28.2074 65.376L30.1154 62.988L28.3394 60.78C28.1874 60.596 28.1514 60.436 28.2314 60.3C28.3114 60.156 28.4314 60.084 28.5914 60.084C28.7194 60.084 28.8234 60.108 28.9034 60.156C28.9834 60.196 29.0594 60.264 29.1314 60.36L30.6794 62.316L32.2394 60.36C32.3114 60.264 32.3874 60.196 32.4674 60.156C32.5474 60.108 32.6474 60.084 32.7674 60.084C32.9354 60.084 33.0554 60.156 33.1274 60.3C33.2074 60.436 33.1714 60.6 33.0194 60.792L31.2434 62.988L33.1634 65.376C33.3074 65.56 33.3394 65.724 33.2594 65.868C33.1794 66.004 33.0554 66.072 32.8874 66.072C32.6714 66.072 32.4914 65.98 32.3474 65.796L30.6674 63.684L28.9994 65.796C28.9274 65.884 28.8514 65.952 28.7714 66C28.6914 66.048 28.5874 66.072 28.4594 66.072Z" fill="white"></path><path d="M61.6759 22.108C61.2039 22.108 60.7359 22.04 60.2719 21.904C59.8079 21.768 59.4039 21.568 59.0599 21.304C58.9319 21.208 58.8559 21.104 58.8319 20.992C58.8159 20.872 58.8319 20.764 58.8799 20.668C58.9359 20.572 59.0199 20.512 59.1319 20.488C59.2439 20.456 59.3679 20.484 59.5039 20.572C59.8559 20.804 60.2079 20.972 60.5599 21.076C60.9119 21.18 61.2759 21.232 61.6519 21.232C62.2599 21.232 62.7239 21.1 63.0439 20.836C63.3719 20.564 63.5359 20.168 63.5359 19.648C63.5359 19.152 63.3719 18.776 63.0439 18.52C62.7159 18.264 62.2399 18.136 61.6159 18.136H60.7639C60.4519 18.136 60.2959 17.992 60.2959 17.704C60.2959 17.424 60.4519 17.284 60.7639 17.284H61.5319C62.0759 17.284 62.5039 17.144 62.8159 16.864C63.1359 16.576 63.2959 16.184 63.2959 15.688C63.2959 15.248 63.1479 14.908 62.8519 14.668C62.5639 14.428 62.1519 14.308 61.6159 14.308C61.2479 14.308 60.9039 14.36 60.5839 14.464C60.2719 14.568 59.9599 14.744 59.6479 14.992C59.5279 15.08 59.4119 15.112 59.2999 15.088C59.1959 15.064 59.1119 15.008 59.0479 14.92C58.9919 14.824 58.9719 14.716 58.9879 14.596C59.0119 14.476 59.0879 14.368 59.2159 14.272C59.5279 14.008 59.8999 13.804 60.3319 13.66C60.7639 13.508 61.2119 13.432 61.6759 13.432C62.4919 13.432 63.1279 13.624 63.5839 14.008C64.0479 14.392 64.2799 14.924 64.2799 15.604C64.2799 16.076 64.1599 16.492 63.9199 16.852C63.6799 17.204 63.3479 17.46 62.9239 17.62C63.4279 17.756 63.8199 18.008 64.0999 18.376C64.3799 18.736 64.5199 19.184 64.5199 19.72C64.5199 20.448 64.2639 21.028 63.7519 21.46C63.2479 21.892 62.5559 22.108 61.6759 22.108ZM66.9152 22C66.7312 22 66.5992 21.96 66.5192 21.88C66.4392 21.792 66.3992 21.676 66.3992 21.532C66.3992 21.364 66.4832 21.192 66.6512 21.016L69.3392 18.136C69.7472 17.696 70.0392 17.292 70.2152 16.924C70.3992 16.548 70.4912 16.168 70.4912 15.784C70.4912 14.8 69.9192 14.308 68.7752 14.308C68.0632 14.308 67.4152 14.536 66.8312 14.992C66.7032 15.088 66.5872 15.124 66.4832 15.1C66.3792 15.068 66.2992 15.004 66.2432 14.908C66.1952 14.812 66.1752 14.708 66.1832 14.596C66.1992 14.476 66.2672 14.372 66.3872 14.284C66.6992 14.028 67.0752 13.824 67.5152 13.672C67.9552 13.512 68.4032 13.432 68.8592 13.432C69.7072 13.432 70.3552 13.632 70.8032 14.032C71.2592 14.424 71.4872 14.984 71.4872 15.712C71.4872 16.216 71.3632 16.712 71.1152 17.2C70.8752 17.68 70.4952 18.192 69.9752 18.736L67.6952 21.16H71.4632C71.7672 21.16 71.9192 21.296 71.9192 21.568C71.9192 21.856 71.7672 22 71.4632 22H66.9152ZM77.0483 24.244C76.7283 24.244 76.5683 24.08 76.5683 23.752V16.576C76.5683 16.248 76.7243 16.084 77.0363 16.084C77.3643 16.084 77.5283 16.248 77.5283 16.576V17.2C77.6963 16.848 77.9563 16.572 78.3083 16.372C78.6603 16.164 79.0643 16.06 79.5203 16.06C80.0403 16.06 80.4923 16.184 80.8763 16.432C81.2683 16.672 81.5683 17.02 81.7763 17.476C81.9923 17.924 82.1003 18.46 82.1003 19.084C82.1003 19.7 81.9923 20.236 81.7763 20.692C81.5683 21.14 81.2683 21.488 80.8763 21.736C80.4923 21.984 80.0403 22.108 79.5203 22.108C79.0723 22.108 78.6723 22.008 78.3203 21.808C77.9683 21.608 77.7083 21.332 77.5403 20.98V23.752C77.5403 24.08 77.3763 24.244 77.0483 24.244ZM79.3163 21.328C79.8603 21.328 80.2963 21.136 80.6243 20.752C80.9523 20.36 81.1163 19.804 81.1163 19.084C81.1163 18.356 80.9523 17.8 80.6243 17.416C80.2963 17.032 79.8603 16.84 79.3163 16.84C78.7723 16.84 78.3363 17.032 78.0083 17.416C77.6803 17.8 77.5163 18.356 77.5163 19.084C77.5163 19.804 77.6803 20.36 78.0083 20.752C78.3363 21.136 78.7723 21.328 79.3163 21.328ZM83.4594 22.072C83.2994 22.072 83.1794 22.004 83.0994 21.868C83.0194 21.724 83.0554 21.56 83.2074 21.376L85.1154 18.988L83.3394 16.78C83.1874 16.596 83.1514 16.436 83.2314 16.3C83.3114 16.156 83.4314 16.084 83.5914 16.084C83.7194 16.084 83.8234 16.108 83.9034 16.156C83.9834 16.196 84.0594 16.264 84.1314 16.36L85.6794 18.316L87.2394 16.36C87.3114 16.264 87.3874 16.196 87.4674 16.156C87.5474 16.108 87.6474 16.084 87.7674 16.084C87.9354 16.084 88.0554 16.156 88.1274 16.3C88.2074 16.436 88.1714 16.6 88.0194 16.792L86.2434 18.988L88.1634 21.376C88.3074 21.56 88.3394 21.724 88.2594 21.868C88.1794 22.004 88.0554 22.072 87.8874 22.072C87.6714 22.072 87.4914 21.98 87.3474 21.796L85.6674 19.684L83.9994 21.796C83.9274 21.884 83.8514 21.952 83.7714 22C83.6914 22.048 83.5874 22.072 83.4594 22.072Z" fill="white"></path><rect opacity="0.2" x="2" y="2" width="32" height="32" fill="white"></rect></svg>