<svg xmlns="http://www.w3.org/2000/svg" width="85" height="14" viewBox="0 0 85 14" fill="none"><path d="M71.4377 0.26692C71.4377 4.67432 71.4377 9.07457 71.4377 13.4963C70.6479 13.4963 69.8869 13.4963 69.0971 13.4963C69.0971 13.2244 69.0971 12.9668 69.0971 12.745C68.5802 13.0455 68.0704 13.346 67.5606 13.6394C66.9647 13.6394 66.3616 13.6394 65.7657 13.6394C65.6006 13.5821 65.4355 13.5249 65.2632 13.4748C64.179 13.1099 63.3964 12.3944 62.9872 11.3427C62.298 9.57541 62.3051 7.79385 63.1093 6.06952C63.9995 4.15917 66.5268 3.33636 68.3217 4.33089C68.573 4.46683 68.7884 4.65286 69.0612 4.84604C69.0612 3.30774 69.0612 1.78375 69.0612 0.259766C69.8581 0.26692 70.6479 0.26692 71.4377 0.26692ZM64.976 8.78122C64.9975 9.41085 65.0765 10.0333 65.3996 10.5986C65.7801 11.2711 66.3473 11.6575 67.137 11.6646C67.9268 11.6718 68.5371 11.3069 68.8817 10.62C69.4992 9.41085 69.5207 8.15159 68.8745 6.95673C68.1063 5.54006 66.2109 5.56153 65.4067 6.95673C65.0908 7.51481 64.9975 8.13728 64.976 8.78122Z" fill="white"></path><path d="M2.36939 13.6462C2.31913 13.6248 2.26887 13.589 2.21143 13.5818C1.05551 13.3314 0.316006 12.6445 0.0790775 11.4854C-0.17221 10.2691 0.172413 9.24597 1.20628 8.50187C1.96733 7.95094 2.85042 7.7506 3.76942 7.72199C4.36533 7.70052 4.96124 7.71483 5.54997 7.71483C5.7151 6.8634 5.44946 6.29101 4.79611 6.04774C3.74788 5.65423 2.85042 5.9762 2.26169 6.97788C1.96015 6.91349 1.64424 6.84909 1.33552 6.77754C1.01961 6.70599 0.710887 6.6416 0.373443 6.5629C0.631911 5.39665 1.31398 4.62392 2.39093 4.2161C3.60429 3.75819 4.83919 3.81542 6.03101 4.30196C7.19411 4.78133 7.72541 5.7544 7.89054 6.94926C7.94798 7.3714 7.96234 7.80069 7.96234 8.22998C7.96952 9.82552 7.96234 11.4211 7.96234 13.0237C7.96234 13.1525 7.96234 13.2813 7.96234 13.4602C7.35207 13.4602 6.77051 13.4674 6.18896 13.453C6.11716 13.453 6.00947 13.3171 5.98793 13.2241C5.90896 12.9379 5.86588 12.6445 5.80844 12.3512C5.77254 12.3512 5.74382 12.344 5.72946 12.3583C5.13355 13.0738 4.35097 13.4674 3.44633 13.6462C3.08735 13.6462 2.72837 13.6462 2.36939 13.6462ZM5.58587 9.5751C4.91098 9.5751 4.25046 9.54648 3.59711 9.58941C3.353 9.60372 3.08017 9.72535 2.87914 9.86845C2.5058 10.126 2.42682 10.5267 2.51298 10.956C2.59196 11.328 2.84324 11.5785 3.21659 11.6357C4.40123 11.8146 5.72946 10.9059 5.58587 9.5751Z" fill="white"></path><path d="M47.8884 13.6469C47.7592 13.6111 47.6371 13.5825 47.5079 13.5467C46.4237 13.2533 45.7417 12.5665 45.5263 11.4718C45.2822 10.2483 45.634 9.23231 46.6679 8.49536C47.4361 7.95159 48.312 7.75125 49.2382 7.72263C49.8341 7.70117 50.43 7.71548 51.0115 7.71548C51.148 6.81396 50.8895 6.27735 50.2361 6.04123C49.1879 5.66203 48.3551 5.96253 47.7017 6.97852C47.1489 6.86405 46.5889 6.74241 46.036 6.62078C45.9786 6.60647 45.9212 6.58501 45.8278 6.54923C45.9571 5.83374 46.3089 5.24704 46.8617 4.78198C47.752 4.05933 48.7859 3.859 49.8987 3.94486C50.3008 3.97348 50.71 4.04503 51.0977 4.1595C52.4618 4.57449 53.1511 5.56901 53.3449 6.92844C53.4024 7.30765 53.4167 7.68686 53.4167 8.06606C53.4239 9.71884 53.4167 11.3788 53.4167 13.0315C53.4167 13.1603 53.4167 13.2891 53.4167 13.4537C52.7993 13.4537 52.2177 13.4608 51.6362 13.4394C51.5644 13.4394 51.4639 13.2963 51.4423 13.2033C51.3633 12.9171 51.3203 12.6237 51.2341 12.2087C51.0833 12.4019 50.99 12.5379 50.8823 12.6595C50.3438 13.2319 49.6402 13.4751 48.9007 13.6397C48.5561 13.6469 48.2187 13.6469 47.8884 13.6469ZM51.0331 9.5829C50.3797 9.5829 49.7479 9.56143 49.1161 9.59721C48.8505 9.61152 48.5776 9.71169 48.3407 9.84047C47.953 10.048 47.8238 10.42 47.8812 10.8493C47.9315 11.2214 48.2833 11.5934 48.6566 11.6435C49.8772 11.8081 51.1839 10.8922 51.0331 9.5829Z" fill="white"></path><path d="M13.0312 10.5485C13.4907 8.72397 13.9215 7.0068 14.3522 5.28963C14.4456 4.91042 14.4384 4.38811 14.6897 4.19493C14.9338 4.00175 15.4435 4.12338 15.8312 4.11623C16.1543 4.11623 16.5636 4.02321 16.7646 4.18062C16.9656 4.33803 16.98 4.76017 17.0518 5.06782C17.4969 6.84223 17.9421 8.6238 18.459 10.4197C18.4949 10.3052 18.538 10.1979 18.5667 10.0834C19.0549 8.21597 19.5431 6.34855 20.017 4.48113C20.0888 4.20924 20.1821 4.08045 20.4908 4.09476C21.0867 4.11623 21.6827 4.10192 22.3216 4.10192C22.2929 4.20924 22.2714 4.33087 22.2283 4.44535C21.3021 7.33592 20.3688 10.2265 19.457 13.1171C19.3708 13.3818 19.2703 13.482 18.9903 13.4676C18.5236 13.4462 18.0569 13.4533 17.5903 13.4676C17.3533 13.4748 17.26 13.3889 17.2026 13.1671C16.7359 11.3927 16.2548 9.62548 15.781 7.85823C15.7523 7.75806 15.7235 7.65073 15.6661 7.45755C15.5728 7.77952 15.4938 8.02279 15.4292 8.26605C14.9912 9.91168 14.5533 11.5573 14.1225 13.2029C14.0579 13.4533 13.9574 13.5464 13.6917 13.5392C13.2035 13.5177 12.7081 13.5464 12.2199 13.5249C12.1122 13.5177 11.947 13.4176 11.9183 13.3245C10.9419 10.3123 9.97982 7.29299 9.02493 4.28079C9.01775 4.24501 9.01775 4.20924 9.01775 4.13054C9.73572 4.13054 10.4537 4.12338 11.1645 4.14485C11.2434 4.14485 11.3655 4.31656 11.3942 4.43104C11.904 6.3557 12.4065 8.27321 12.9091 10.1979C12.945 10.2694 12.9737 10.3553 13.0312 10.5485Z" fill="white"></path><path d="M26.8807 7.43602C26.3279 9.51093 25.7966 11.5 25.2581 13.5177C24.6191 13.5177 23.9873 13.5248 23.3555 13.5105C23.2837 13.5105 23.176 13.4032 23.1545 13.3245C22.7811 12.1725 22.4222 11.0135 22.056 9.85437C22.0345 9.77566 22.0201 9.68265 22.0345 9.6111C22.2929 8.70959 22.5586 7.81523 22.8242 6.91371C22.8601 6.91371 22.896 6.91371 22.9319 6.90656C23.3483 8.09427 23.7719 9.28198 24.1884 10.4697C24.2099 10.4697 24.2314 10.4697 24.253 10.4697C24.7627 8.34469 25.2725 6.21969 25.7894 4.07323C26.5146 4.07323 27.2325 4.07323 27.9649 4.07323C28.4961 6.20538 29.0274 8.33753 29.5587 10.4697C29.5803 10.4697 29.6018 10.4625 29.6234 10.4625C30.0613 8.76683 30.4993 7.07827 30.9372 5.38257C31.0306 5.01052 31.1167 4.63846 31.2316 4.28072C31.2603 4.18771 31.3967 4.06607 31.4829 4.06607C32.1721 4.05176 32.8686 4.05892 33.6081 4.05892C33.5722 4.20917 33.5434 4.3308 33.5075 4.45244C32.5814 7.36447 31.648 10.2765 30.729 13.1957C30.6429 13.4604 30.528 13.5463 30.2552 13.5391C29.7813 13.5177 29.3003 13.5177 28.8192 13.5391C28.5608 13.5534 28.4746 13.4533 28.41 13.2243C27.9433 11.4427 27.4623 9.66118 26.9884 7.87247C26.9741 7.75083 26.9382 7.63635 26.8807 7.43602Z" fill="white"></path><path d="M35.5107 10.5772C36.0491 8.34485 36.5589 6.21985 37.0686 4.07339C37.7866 4.07339 38.4974 4.07339 39.2513 4.07339C39.7826 6.19839 40.3139 8.32339 40.8451 10.4555C40.8667 10.4555 40.8882 10.4555 40.9098 10.4555C41.2257 9.23921 41.5416 8.02288 41.8575 6.80655C42.0729 5.97659 42.2811 5.14662 42.5108 4.31666C42.5395 4.21649 42.676 4.06624 42.7621 4.06624C43.4514 4.04477 44.1478 4.05193 44.8945 4.05193C44.8586 4.18787 44.837 4.30235 44.8011 4.40251C43.8534 7.33601 42.8913 10.2695 41.9508 13.203C41.8718 13.4534 41.757 13.5393 41.5057 13.525C41.0534 13.5035 40.5939 13.4964 40.1415 13.525C39.8544 13.5393 39.761 13.4248 39.6964 13.1672C39.2369 11.3785 38.7559 9.59695 38.2748 7.81539C38.2533 7.72238 38.2174 7.63652 38.16 7.44334C37.9661 8.16598 37.7938 8.79561 37.6287 9.43239C37.2912 10.6988 36.9466 11.9652 36.6235 13.2316C36.5661 13.4606 36.4656 13.5321 36.2358 13.525C35.7476 13.5107 35.2522 13.5107 34.764 13.525C34.5701 13.5321 34.4624 13.4749 34.405 13.2817C34.046 12.1512 33.6655 11.0208 33.2993 9.88315C33.2706 9.78298 33.2419 9.66135 33.2706 9.57549C33.5363 8.73837 33.8163 7.90125 34.0891 7.06413C34.1035 7.01404 34.1394 6.96396 34.204 6.84233C34.6347 8.09443 35.0512 9.28929 35.5107 10.5772Z" fill="white"></path><path d="M57.8753 13.4747C57.0783 13.4747 56.3245 13.4747 55.5491 13.4747C55.5491 10.3552 55.5491 7.22135 55.5491 4.06605C56.3101 4.06605 57.064 4.06605 57.8537 4.06605C57.8537 4.53112 57.8537 4.99618 57.8537 5.59004C58.8661 4.15906 60.1225 3.64391 61.7882 4.10182C61.6518 4.81731 61.5154 5.52564 61.379 6.23398C59.8569 5.68305 58.7368 6.18389 58.2414 7.70788C58.0189 8.38759 57.9255 9.12454 57.8896 9.84719C57.8322 11.0277 57.8753 12.2226 57.8753 13.4747Z" fill="white"></path><path d="M73.2684 10.9997C73.8859 10.6634 74.4746 10.3414 75.0777 10.0123C75.2644 10.3057 75.4152 10.599 75.6162 10.8566C76.0685 11.429 76.6788 11.6436 77.3967 11.5148C77.8706 11.429 78.165 11.1428 78.2368 10.7063C78.2942 10.3271 78.1362 10.0195 77.6839 9.80482C77.2316 9.59017 76.7506 9.43992 76.2911 9.24674C75.9895 9.12511 75.6952 9.00347 75.408 8.86038C74.4818 8.39531 73.9649 7.6512 73.972 6.60659C73.9792 5.56913 74.4531 4.77494 75.3505 4.25264C76.8224 3.37974 79.0337 3.95929 79.8594 5.45466C79.4214 5.85533 78.9763 6.26316 78.6101 6.59228C78.1219 6.34186 77.6983 6.07713 77.246 5.90541C77.0378 5.82671 76.7434 5.86964 76.5136 5.94834C75.9608 6.14868 75.8459 6.80693 76.2982 7.18614C76.5065 7.35785 76.7649 7.46518 77.0234 7.56534C77.5332 7.76568 78.0645 7.91593 78.567 8.13058C79.5865 8.55987 80.3691 9.1895 80.3548 10.4201C80.3332 11.7295 79.7373 12.6811 78.5383 13.2177C76.5352 14.1049 73.929 13.0102 73.2684 10.9997Z" fill="white"></path><path d="M83.4277 13.5823C82.523 13.5823 81.8553 12.9169 81.8625 12.0226C81.8625 11.1282 82.5374 10.47 83.4348 10.4771C84.3395 10.4771 85 11.1354 85 12.0297C85 12.9241 84.3323 13.5823 83.4277 13.5823Z" fill="white"></path></svg>