<?xml version="1.0" encoding="UTF-8"?>
<svg id="_Слой_1" data-name="Слой 1" xmlns="http://www.w3.org/2000/svg" viewBox="0 0 250 150">
  <path d="m78.77,48.27l-20.8,28.35,22.73,28.77v.75h-17.78l-17.45-22.73v22.73h-14.34v-58.71h14.34v22.81l16.27-22.81h17.03v.84Z"/>
  <path d="m98.47,92.31h24.66v13.84h-38.75v-58.71h38.67v13.84h-24.58v8.56h24.07v13.92h-24.07v8.56Z"/>
  <path d="m142.76,92.31h24.66v13.84h-38.75v-58.71h38.67v13.84h-24.58v8.56h24.07v13.92h-24.07v8.56Z"/>
  <path d="m172.95,106.15v-58.71h11.07l20.3,29.36v-29.36h14.17v58.71h-11.24l-20.05-28.6v28.6h-14.26Z"/>
</svg>